<svg xmlns="http://www.w3.org/2000/svg" data-name="Layer 23" viewBox="0 0 32 32"><defs><linearGradient id="a" x1=".789" x2="28.201" y1="1.799" y2="29.211" gradientUnits="userSpaceOnUse"><stop offset="0" stop-color="#8e2de2"/><stop offset="1" stop-color="#4a00e0"/></linearGradient></defs><path fill="url(#a)" d="M30 25H4a1 1 0 0 1 0-2h20.27a3.067 3.067 0 0 0 2.94-2.11l3.67-10.06a2.933 2.933 0 0 0-.47-2.59A3.065 3.065 0 0 0 27.92 7H6.85l-.86-5.16A1 1 0 0 0 5 1H2a1 1 0 0 0 0 2h2.15l.71 4.25a3.2 3.2 0 0 0-1.14.82 2.968 2.968 0 0 0-.68 2.39l1.77 9.97a3.4 3.4 0 0 0 .15.57H4a3 3 0 0 0 0 6h1.18a3 3 0 1 0 5.64 0h10.36a3 3 0 1 0 5.64 0H30a1 1 0 0 0 0-2ZM13 14h2v-2a1 1 0 0 1 2 0v2h2a1 1 0 0 1 0 2h-2v2a1 1 0 0 1-2 0v-2h-2a1 1 0 0 1 0-2ZM8 29a1 1 0 1 1 1-1 1 1 0 0 1-1 1Zm16 0a1 1 0 1 1 1-1 1 1 0 0 1-1 1Z"/></svg>