<svg xmlns="http://www.w3.org/2000/svg" viewBox="0 0 32 32"><g data-name="Layer 2"><path fill="#f26674" d="M29.915,6.05957A2.50556,2.50556,0,0,0,27.87109,5H7.69043l1.333,15.2168A1.00073,1.00073,0,0,0,10,21H22.88574a4.008,4.008,0,0,0,3.7666-2.65527L30.22559,8.34082A2.502,2.502,0,0,0,29.915,6.05957Z"/><circle cx="11.5" cy="27.5" r="2.5" fill="#cc5269"/><circle cx="23.5" cy="27.5" r="2.5" fill="#cc5269"/><path fill="#2d2d2d" d="M18,18a.99676.99676,0,0,1-.707-.293l-4-4A.99989.99989,0,0,1,14.707,12.293L18,15.58594l3.293-3.293A.99989.99989,0,0,1,22.707,13.707l-4,4A.99676.99676,0,0,1,18,18Z"/><path fill="#2d2d2d" d="M18 18a.99943.99943 0 01-1-1V9a1 1 0 012 0v8A.99943.99943 0 0118 18zM11.5 31A3.5 3.5 0 1115 27.5 3.50424 3.50424 0 0111.5 31zm0-5A1.5 1.5 0 1013 27.5 1.50164 1.50164 0 0011.5 26zM23.5 31A3.5 3.5 0 1127 27.5 3.50424 3.50424 0 0123.5 31zm0-5A1.5 1.5 0 1025 27.5 1.50164 1.50164 0 0023.5 26z"/><path fill="#2d2d2d" d="M26,26H8.5a3.5,3.5,0,0,1,0-7H22a1,1,0,0,1,0,2H8.5a1.5,1.5,0,0,0,0,3H26a1,1,0,0,1,0,2Z"/><path fill="#2d2d2d" d="M22.88574,21H10a1.00073,1.00073,0,0,1-.97656-.7832L5.19727,3H2A1,1,0,0,1,2,1H5.19824A1.98869,1.98869,0,0,1,7.15039,2.56641L7.69043,5H27.87109a2.49945,2.49945,0,0,1,2.3545,3.34082L26.65234,18.34473A4.008,4.008,0,0,1,22.88574,21Zm-12.084-2h12.084a2.00486,2.00486,0,0,0,1.88379-1.32812L28.34277,7.669A.50063.50063,0,0,0,27.87109,7H8.13574Z"/></g></svg>