<?xml version="1.0" standalone="no"?>
<!DOCTYPE svg PUBLIC "-//W3C//DTD SVG 1.0//EN" "http://www.w3.org/TR/2001/REC-SVG-20010904/DTD/svg10.dtd">
<svg xmlns="http://www.w3.org/2000/svg" xmlns:xlink="http://www.w3.org/1999/xlink" id="body_1" width="3072" height="2304">

<defs>
        <clipPath  id="1">

            <path clip-rule="evenodd" d="M0 38L38 38L38 0L0 0L0 38z" />        </clipPath>
</defs>

<g transform="matrix(48.505264 0 0 48.505264 383.99997 -0)">
	<g transform="matrix(1.25 0 -0 -1.25 0 47.5)" clip-path="url(#1)" >
        <path transform="matrix(1 0 0 1 36 11)"  d="M0 0C 0 -2.209139 -1.7908609 -4 -4 -4L-4 -4L-30 -4C -32.20914 -4 -34 -2.209139 -34 0L-34 0L-34 19.687C -34 21.896 -28.209 26 -26 26L-26 26L-5.375 26C -2.281 26 0 23.687 0 20.625L0 20.625L0 0z" stroke="none" fill="#A0041E" fill-rule="nonzero" />
        <path transform="matrix(1 0 0 1 34 7)"  d="M0 0C 0 -2.209139 -1.7908609 -4 -4 -4L-4 -4L-26 -4C -28.209139 -4 -30 -2.209139 -30 0L-30 0L-30 24C -30 28.119 -30.021 28 -25 28L-25 28L-4 28C -1.7908609 28 0 26.209139 0 24L0 24L0 0z" stroke="none" fill="#CCD6DD" fill-rule="nonzero" />
        <path transform="matrix(1 0 0 1 32 6)"  d="M0 0C 0 -1.6568544 -1.3431456 -3 -3 -3L-3 -3L-27 -3C -28.656855 -3 -30 -1.6568544 -30 0L-30 0L-30 24C -30 25.656855 -28.656855 27 -27 27L-27 27L-3 27C -1.3431456 27 0 25.656855 0 24L0 24L0 0z" stroke="none" fill="#E1E8ED" fill-rule="nonzero" />
        <path transform="matrix(1 0 0 1 32 5)"  d="M0 0C 0 -2.209139 -1.7908609 -4 -4 -4L-4 -4L-25 -4C -27.209139 -4 -29 -2.209139 -29 0L-29 0L-29 22C -29 24.209139 -27.209139 26 -25 26L-25 26L-4 26C -1.7908609 26 0 24.209139 0 22L0 22L0 0z" stroke="none" fill="#BE1931" fill-rule="nonzero" />
        <path transform="matrix(1 0 0 1 30 5)"  d="M0 0C 0 -2.209139 -1.7908609 -4 -4 -4L-4 -4L-23 -4C -25.209139 -4 -27 -2.209139 -27 0L-27 0L-27 20C -27 22.209139 -25.209139 24 -23 24L-23 24L-3.665001 24C -1.456 24 0 22.544 0 20.335L0 20.335L0 0z" stroke="none" fill="#DD2E44" fill-rule="nonzero" />
        <path transform="matrix(1 0 0 1 7 31)"  d="M0 0C -1.687 0 -1.731 1.922 -1 2.75C -0.168 3.691 1.125 4 3.438 4L3.438 4L5 4L5 6L2.281 6C -1.687 6 -5 3.5 -5 0.625L-5 0.625L-5 -26C -5 -28.209139 -3.209139 -30 -1 -30L-1 -30L1 -30L1 0L0 0z" stroke="none" fill="#A0041E" fill-rule="nonzero" />
	</g>
</g>
</svg>